<?xml version="1.0" encoding="utf-8"?>
<!-- Generator: Adobe Illustrator 23.0.1, SVG Export Plug-In . SVG Version: 6.00 Build 0)  -->
<svg version="1.1" id="Layer_1" xmlns="http://www.w3.org/2000/svg" xmlns:xlink="http://www.w3.org/1999/xlink" x="0px" y="0px"
	 viewBox="0 0 600 600" style="enable-background:new 0 0 600 600;" xml:space="preserve">
<style type="text/css">
	.st0{fill:#330000;}
	.st1{fill:#FFFFFF;}
	.st2{fill:#FAD39D;}
</style>
<path class="st0" d="M563.4,348.1l-69.8-0.3c-2.1,10.4-4.8,20.5-8.2,30.3l27.2-3.1c13.8-2.4,30.7,2.5,30,12.2
	c-1,12.1-1.9,33.1-2.9,53.3c-1.1,21-11.6,40.4-16.9,60.1c0.2-0.6,1.4,0,2,0c29.7,0.1,49.9-41.7,50.2-69.7l5-74.9
	C580.1,348.2,571.9,348.2,563.4,348.1z"/>
<path class="st1" d="M531.1,494c1.3-3.8,2.7-7.7,4.1-11.6c4.8-13.2,9.7-26.8,10.5-41.4c0.3-5.6,0.6-11.3,0.8-16.9
	c0.7-14.2,1.4-27.6,2.1-36.3c0.3-4-1-7.7-3.9-10.8c-4.9-5.3-14.3-8.5-25-8.5c-2.7,0-5.4,0.2-7.9,0.6l-17.8,2
	c1.7-5.7,3.2-11.4,4.5-17.3l64.9,0.3c3.1,0,9.4,0,10.6,1.2c0,0,0.1,0.2,0.1,0.7l-5,74.8l0,0.2C568.8,454.5,553.1,488.5,531.1,494z"
	/>
<path class="st0" d="M303.1,352.9c-101.5,0-184.3-20.6-200.7-46.4C121,434.7,203.1,532.4,303.3,532.4
	c100.4,0,183.6-95.6,201.9-224.3C490.2,334.4,405.7,352.9,303.1,352.9z M303.3,524.5c-96.8,0-177.4-88.8-195.4-206.5
	c15.9,23.7,97.2,41.8,195.2,41.8c99.1,0,181.2-18.5,195.7-42.6C481.1,435.3,400.3,524.5,303.3,524.5z"/>
<path class="st0" d="M400.5,499.3c-6.8,4.8-13.9,9.2-21.1,13c5.8,3.1,9.1,6.6,9.1,10.3c0,12.8-38.8,23.2-86.7,23.2
	s-86.7-10.4-86.7-23.2c0-4.4,4.5-8.4,12.4-11.9c-7.3-4-14.3-8.6-21.1-13.7c-25.1,6.5-40.7,15.6-40.7,25.6
	c0,19.7,59.8,35.7,133.6,35.7s133.6-16,133.6-35.7C432.8,513.6,420.6,505.5,400.5,499.3z"/>
<path class="st0" d="M555.5,481.6c-7.1,8.4-15.7,13.9-25.3,13.7c-0.6,0-1.7-0.7-1.9,0c1.7-7.3,4-14.5,6.2-21.7
	c-23.8-8-53.2-14.8-86.7-20c-7.8,10.3-16.3,19.7-25.3,28.2c46.7,9.5,76.8,24.5,76.8,41.4c0,28.7-87,51.9-194.4,51.9
	s-194.4-23.3-194.4-51.9c0-16.9,30.3-32,77.2-41.4c-9.3-8.9-18.1-18.8-26.2-29.7C65.3,465.3-0.4,492.1-0.4,523.1
	c0,44.2,134.1,80,299.6,80s299.6-35.8,299.6-80C598.9,507.9,583,493.7,555.5,481.6z"/>
<path class="st0" d="M302.5,291.2c-81.7,0-151.9,13.9-182.2,33.7c3.5,1.5,7.3,3,11.3,4.4c20.6-16.1,88.7-37.7,148.9-13.3
	c7.4,3,38.2,15.5,36.5,24.7c-1.1,5.7-14.5,9.6-33.8,11.9c6.1,0.1,12.3,0.2,18.6,0.2c78.4,0,146.9-10.1,185.5-26.1
	C458.6,305.9,386.7,291.2,302.5,291.2z"/>
<path class="st0" d="M303.8,250.4c-111.2,0-201.4,24.5-201.4,54.8c0,30.2,90.2,54.8,201.4,54.8s201.4-24.5,201.4-54.8
	C505.2,274.9,415,250.4,303.8,250.4z M303.8,355.7c-105.5,0-191-23.3-191-51.9c0-28.7,85.5-51.9,191-51.9s191,23.3,191,51.9
	C494.8,332.4,409.3,355.7,303.8,355.7z"/>
<g>
	<path class="st2" d="M347.5,27.4c55.6,15.5,147.7,59.5,99.6,96c-18.5,14.1-46.4,20.1-72.3,31.1c-52.2,22.1-65.5,75.6-74,76.4
		c-10.1,0.9-4.1-61,54-87.8c33.9-15.6,37.2-8.3,63.3-27.2C477.6,72.7,340.9,25.5,347.5,27.4z"/>
	<path class="st2" d="M170.1,50.1c9.2-1.1,145.3,10.6,116.5,64.3c-11.1,20.6-20,35.4-24.5,55.3c-10.5,45.9,13.1,112.9,7.4,116.6
		c-7.1,4.8-54.9-74.1-38.9-122.8c6.2-19,22.2-25.1,30.4-53.6C274.3,63.3,162.8,51,170.1,50.1z"/>
	<path class="st2" d="M258.1,0C316.8,13.2,418.1,53.3,378,91.6c-15.4,14.7-41.8,21.9-65.3,33.9c-47.2,24.1-48.8,77.9-57.2,79.1
		c-9.8,1.3-17.3-60.5,34.7-89.6c30.3-17,35.3-9.7,57.2-29.6C397.4,39.9,251.1-1.5,258.1,0z"/>
</g>
</svg>
