<?xml version="1.0" encoding="UTF-8" standalone="no"?>
<svg
   xmlns:dc="http://purl.org/dc/elements/1.1/"
   xmlns:cc="http://creativecommons.org/ns#"
   xmlns:rdf="http://www.w3.org/1999/02/22-rdf-syntax-ns#"
   xmlns:svg="http://www.w3.org/2000/svg"
   xmlns="http://www.w3.org/2000/svg"
   xmlns:sodipodi="http://sodipodi.sourceforge.net/DTD/sodipodi-0.dtd"
   xmlns:inkscape="http://www.inkscape.org/namespaces/inkscape"
   inkscape:version="1.0 (4035a4fb49, 2020-05-01)"
   sodipodi:docname="DotDzez.svg"
   xml:space="preserve"
   style="enable-background:new 0 0 600 600;"
   viewBox="0 0 600 600"
   y="0px"
   x="0px"
   id="Layer_1"
   version="1.1"><metadata
   id="metadata29"><rdf:RDF><cc:Work
       rdf:about=""><dc:format>image/svg+xml</dc:format><dc:type
         rdf:resource="http://purl.org/dc/dcmitype/StillImage" /></cc:Work></rdf:RDF></metadata><defs
   id="defs27" /><sodipodi:namedview
   inkscape:current-layer="Layer_1"
   inkscape:window-maximized="1"
   inkscape:window-y="-8"
   inkscape:window-x="1072"
   inkscape:cy="300"
   inkscape:cx="300"
   inkscape:zoom="1.4166667"
   showgrid="false"
   id="namedview25"
   inkscape:window-height="1017"
   inkscape:window-width="1920"
   inkscape:pageshadow="2"
   inkscape:pageopacity="0"
   guidetolerance="10"
   gridtolerance="10"
   objecttolerance="10"
   borderopacity="1"
   bordercolor="#666666"
   pagecolor="#ffffff" />
<style
   id="style2"
   type="text/css">
	.st0{fill:#FAD39D;}
	.st1{fill:#330000;}
</style>
<polygon
   transform="matrix(-1,0,0,1,600.1936,0)"
   id="polygon4"
   points="600.2,546.7 532,288 331.5,288 263.3,546.7 "
   class="st0" />
<ellipse
   transform="scale(-1,1)"
   id="ellipse6"
   ry="53.299999"
   rx="168.39999"
   cy="546.70001"
   cx="-168.49359"
   class="st0" />
<polygon
   transform="matrix(-1,0,0,1,600.1936,0)"
   id="polygon8"
   points="507.7,379.5 513.3,360.9 252.7,288.1 247.1,306.7 "
   class="st0" />
<path
   id="path10"
   d="m 585.5936,259.2 -251.2,70.2 c -10.7,3 -22,-2.9 -25.1,-13.2 l -0.4,-1.2 c -3.1,-10.3 3,-21 13.8,-24 l 251.2,-70.2 c 10.7,-3 22,2.9 25.1,13.2 l 0.4,1.2 c 3.1,10.3 -3,21 -13.8,24 z"
   class="st1" />
<g
   transform="matrix(-1,0,0,1,600.1936,0)"
   id="g18">
	<path
   id="path12"
   d="m 388.5,22.5 c -47.7,12.8 -126.9,48.9 -85.5,78.9 15.8,11.6 39.8,16.6 62,25.6 44.9,18.1 56.2,62.2 63.6,62.8 8.7,0.8 3.6,-50.2 -46.4,-72.2 -29.1,-12.9 -32,-6.8 -54.4,-22.4 -51,-35.4 66.3,-74.2 60.7,-72.7 z"
   class="st1" />
	<path
   id="path14"
   d="m 540.9,41.2 c -7.9,-0.9 -124.8,8.8 -100,52.9 9.5,16.9 17.2,29.1 21.1,45.5 9,37.7 -11.2,92.8 -6.4,95.9 6.1,3.9 47.1,-60.9 33.4,-101 -5.4,-15.6 -19.1,-20.6 -26.1,-44.1 -11.5,-38.3 84.2,-48.5 78,-49.2 z"
   class="st1" />
	<path
   id="path16"
   d="m 465.3,0 c -50.4,10.9 -137.4,43.8 -103,75.3 13.2,12.1 35.9,18 56.1,27.9 40.6,19.8 41.9,64.1 49.1,65 8.4,1.1 14.9,-49.8 -29.8,-73.7 -26,-13.9 -30.3,-8 -49.1,-24.4 -43,-37.3 82.6,-71.4 76.7,-70.1 z"
   class="st1" />
</g>
<path
   id="path20"
   d="M 58.693605,259.9 H 278.9936 c 2.1,0 3.8,1.7 3.8,3.8 v 5.7 c 0,12 -9.7,21.7 -21.7,21.7 H 76.593605 c -12,0 -21.7,-9.7 -21.7,-21.7 v -5.7 c -0.1,-2.1 1.7,-3.8 3.8,-3.8 z"
   class="st1" />
<path
   id="path22"
   d="M 34.093605,236.8 H 303.4936 v 2 c 0,18.6 -15.1,33.7 -33.7,33.7 H 67.793605 c -18.6,0 -33.7,-15.1 -33.7,-33.7 z"
   class="st0" />
</svg>
