<?xml version="1.0" encoding="utf-8"?>
<!-- Generator: Adobe Illustrator 23.0.1, SVG Export Plug-In . SVG Version: 6.00 Build 0)  -->
<svg version="1.1" id="Layer_1" xmlns="http://www.w3.org/2000/svg" xmlns:xlink="http://www.w3.org/1999/xlink" x="0px" y="0px"
	 viewBox="0 0 600 600" style="enable-background:new 0 0 600 600;" xml:space="preserve">
<style type="text/css">
	.st0{fill:#330000;}
	.st1{enable-background:new    ;}
	.st2{fill:#FAD39D;}
</style>
<path class="st0" d="M478.3,57.5H121.8c-12.1,0-21.8-9.8-21.8-21.8V22.1c0-12.1,9.8-21.8,21.8-21.8h356.5c12.1,0,21.8,9.8,21.8,21.8
	v13.5C500.1,47.7,490.3,57.5,478.3,57.5z"/>
<path class="st0" d="M536.5,94.2H63.6v-36c0-16.2,13.1-29.3,29.3-29.3h414.2c16.2,0,29.3,13.1,29.3,29.3L536.5,94.2L536.5,94.2z"/>
<g>
	<g>
		<path class="st0" d="M330,267c-11.6,6.1-31.5,24.4-23.6,41.9c3.1,6.7,8.3,10,13,15.4c9.4,11,9.8,35.6,11.4,36.1
			c1.9,0.6,3.3-27.7-7-40.9c-6-7.7-7-4.4-11.3-13.5C302.6,285.4,331.4,266.3,330,267z"/>
		<path class="st0" d="M356.2,268.9c1.9,0,26.5,12.2,14.5,34.4c-4.6,8.5-8,14.6-11.3,23.1c-7.5,19.7-11,50.5-12.5,51.8
			c-1.9,1.7-1.6-35.5,7.3-56.2c3.5-8,7.2-9.9,12.2-22.1C374.6,280.1,354.7,268.9,356.2,268.9z"/>
		<path class="st0" d="M232.9,404.5l28.8-0.1c0.9,4.3,2,8.5,3.4,12.5l-11.2-1.3c-5.7-1-12.7,1-12.4,5.1c0.4,5,0.8,13.7,1.2,22
			c0.4,8.7,4.8,16.7,7,24.8c-0.1-0.3-0.6,0-0.8,0c-12.3,0-20.6-17.2-20.7-28.8l-2.1-30.9C226,404.5,229.4,404.5,232.9,404.5z"/>
		<path class="st0" d="M256.9,388c7.6,53.1,41.9,92.6,83.3,92.6s75.2-40.3,82.9-93.2c-6.8,10.7-41,19.2-82.8,19.2
			C298,406.5,263.1,398.8,256.9,388z M259.6,391.7c6,10,39.9,17.6,80.8,17.6c40.4,0,74-7.5,80.6-17.2c-7.4,48.6-40.7,85.2-80.6,85.2
			C300.2,477.3,266.9,440.5,259.6,391.7z"/>
		<path class="st0" d="M300.2,466.9c2.8,2,5.7,3.8,8.7,5.3c-2.4,1.3-3.7,2.7-3.7,4.3c0,5.3,16,9.6,35.8,9.6s35.8-4.3,35.8-9.6
			c0-1.8-1.9-3.5-5.1-4.9c3-1.7,5.9-3.6,8.7-5.7c10.3,2.7,16.8,6.4,16.8,10.6c0,8.1-24.7,14.7-55.1,14.7s-55.1-6.6-55.1-14.7
			C286.8,472.8,291.8,469.4,300.2,466.9z"/>
		<path class="st0" d="M236.2,459.6c2.9,3.5,6.5,5.7,10.4,5.7c0.3,0,0.7-0.3,0.8,0c-0.7-3-1.6-6-2.6-9c9.8-3.3,22-6.1,35.8-8.2
			c3.2,4.2,6.7,8.1,10.4,11.6c-19.3,3.9-31.7,10.1-31.7,17.1c0,11.8,35.9,21.4,80.2,21.4s80.2-9.6,80.2-21.4
			c0-7-12.5-13.2-31.9-17.1c3.9-3.7,7.5-7.8,10.8-12.2c39.7,5.5,66.8,16.6,66.8,29.3c0,18.2-55.4,33-123.7,33S218,495,218,476.8
			C218.3,470.4,224.8,464.6,236.2,459.6z"/>
		<path class="st0" d="M342.3,295.1c-3-3.9-3.4-2.3-5.7-6.8c-1.7-3.4,0.1-8.8,1.7-12.5c0.3-0.6,0.9-1,1.6-0.9
			c7.3,0.7,14,7.8,15.8,17.4c1.7,8.9-1.3,17.2-6.8,21.1c-1,0.7-2.5,0-2.4-1.3C346.6,307.5,345.8,299.6,342.3,295.1z"/>
		<path class="st0" d="M330.3,278.8c1.2-0.9,2.8,0.4,2.2,1.7c-1.3,3.3-1.5,7,0,10.3c1.4,3.3,4,4.8,6.2,7.4c3.5,4.1,4.4,12,5,15.6
			c0.1,0.8-0.4,1.5-1.2,1.7l0,0c-8.2,1.6-16.5-5.9-18.5-16.6C322.5,290.5,325.2,282.6,330.3,278.8z"/>
		<path class="st0" d="M340.6,381c33.7,0,62.7,5.7,75.2,13.9c-1.5,0.6-3,1.2-4.6,1.8c-8.5-6.6-36.6-15.6-61.5-5.5
			c-3,1.2-15.8,6.4-15,10.2c0.4,2.3,6,3.9,14,4.9c-2.5,0.1-5.1,0.1-7.7,0.1c-32.4,0-60.6-4.2-76.6-10.8
			C276.2,387.1,305.9,381,340.6,381z"/>
		<path class="st0" d="M256.9,386.8c0,12.5,37.2,22.6,83.1,22.6s83.1-10.1,83.1-22.6s-37.2-22.6-83.1-22.6S256.9,374.3,256.9,386.8z
			 M261.2,386.2c0-11.8,35.3-21.4,78.8-21.4s78.8,9.6,78.8,21.4s-35.3,21.4-78.8,21.4S261.2,398,261.2,386.2z"/>
	</g>
</g>
<g class="st1">
	<path class="st0" d="M223,242.8c-6.5,0-11.6-1.2-15.3-3.5c-3.7-2.4-5.5-5.6-5.5-9.8c0-4.1,1.2-7.6,3.7-10.7
		c2.5-3.1,5.9-5.5,10.4-7.2s9.7-2.5,15.5-2.5c5,0,10.2,0.4,15.6,1.3l-1.6,7.2h-2.3v-4.3c-1.5-0.7-3.2-1.2-5.3-1.6
		c-2.1-0.4-4.3-0.6-6.5-0.6c-4.3,0-8.1,0.8-11.5,2.4c-3.4,1.6-6,3.8-7.9,6.7c-1.9,2.9-2.8,6.2-2.8,9.9c0,3.5,1.2,6.2,3.7,8
		c2.5,1.8,6,2.8,10.6,2.8c2.7,0,5.3-0.3,7.9-0.8c2.6-0.6,4.7-1.3,6.3-2.1l2.6-4.9h2.3l-2.2,7.7c-2.7,0.7-5.7,1.2-8.8,1.6
		S225.6,242.8,223,242.8z"/>
	<path class="st0" d="M259.9,242.8c-3.9,0-7.1-0.9-9.5-2.6c-2.4-1.7-3.6-4.1-3.6-7.1c0-2.6,0.8-5.1,2.5-7.3c1.6-2.2,3.9-4,6.8-5.3
		s6.2-1.9,9.8-1.9c3.9,0,7.1,0.9,9.5,2.6c2.4,1.7,3.6,4.1,3.6,7.1c0,2.6-0.8,5.1-2.5,7.3c-1.6,2.2-3.9,4-6.8,5.3
		C266.8,242.2,263.5,242.8,259.9,242.8z M253.1,234c0,2.2,0.6,3.9,1.9,5.1c1.2,1.2,3,1.8,5.2,1.8c2.2,0,4.2-0.6,6.2-1.8
		c2-1.2,3.5-2.8,4.6-4.9s1.7-4.3,1.7-6.7c0-2.3-0.6-4-1.9-5.1c-1.2-1.2-3-1.8-5.3-1.8c-2.2,0-4.2,0.6-6.1,1.8s-3.5,2.8-4.6,4.9
		C253.7,229.4,253.1,231.6,253.1,234z"/>
	<path class="st0" d="M285.8,253h-5.9l8-31.7h-5.8l0.3-1.2l6-1l0.4-1.6c0.9-3.6,2.5-6.3,4.8-8c2.2-1.7,5.3-2.6,9.1-2.6
		c1.8,0,3.5,0.2,4.9,0.5l-1.2,4.8h-1.7l-0.7-2.8c-0.7-0.3-1.7-0.5-3-0.5c-1.4,0-2.6,0.4-3.4,1.3c-0.8,0.9-1.6,2.6-2.3,5.2l-1,3.8
		h7.4l-0.5,2.1h-7.4L285.8,253z"/>
	<path class="st0" d="M304.1,253h-5.9l8-31.7h-5.8l0.3-1.2l6-1l0.4-1.6c0.9-3.6,2.5-6.3,4.8-8c2.2-1.7,5.3-2.6,9.1-2.6
		c1.8,0,3.5,0.2,4.9,0.5l-1.2,4.8H323l-0.7-2.8c-0.7-0.3-1.7-0.5-3-0.5c-1.4,0-2.6,0.4-3.4,1.3c-0.8,0.9-1.6,2.6-2.3,5.2l-1,3.8h7.4
		l-0.5,2.1h-7.4L304.1,253z"/>
	<path class="st0" d="M346.3,223.7c0,2.2-2,4.1-6,5.7s-9.3,2.5-16,2.8l-0.1,1.8c0,2.1,0.6,3.6,1.9,4.7s3.1,1.6,5.6,1.6
		c2.1,0,4.1-0.2,5.9-0.7s3.5-1.1,5-1.7l1,1c-2.2,1.3-4.5,2.3-6.9,2.9c-2.4,0.7-4.7,1-6.9,1c-3.8,0-6.8-0.7-8.9-2.2
		c-2.1-1.5-3.1-3.6-3.1-6.4c0-2.7,0.8-5.3,2.5-7.6s4-4.3,6.9-5.7c3-1.5,6.1-2.2,9.3-2.2c2.9,0,5.3,0.5,7,1.4
		S346.3,222.2,346.3,223.7z M324.6,230.7c4.7-0.2,8.4-1,11.3-2.3c2.8-1.3,4.2-2.8,4.2-4.7c0-0.9-0.4-1.7-1.1-2.3
		c-0.7-0.6-1.8-0.9-3.1-0.9c-1.7,0-3.3,0.5-4.8,1.4s-2.9,2.2-4.1,3.8C325.8,227.3,325,228.9,324.6,230.7z"/>
	<path class="st0" d="M376.7,223.7c0,2.2-2,4.1-6,5.7s-9.3,2.5-16,2.8l-0.1,1.8c0,2.1,0.6,3.6,1.9,4.7s3.1,1.6,5.6,1.6
		c2.1,0,4.1-0.2,5.9-0.7c1.8-0.5,3.5-1.1,5-1.7l1,1c-2.2,1.3-4.5,2.3-6.9,2.9c-2.4,0.7-4.7,1-6.9,1c-3.8,0-6.8-0.7-8.9-2.2
		c-2.1-1.5-3.1-3.6-3.1-6.4c0-2.7,0.8-5.3,2.5-7.6c1.7-2.4,4-4.3,6.9-5.7c3-1.5,6.1-2.2,9.3-2.2c2.9,0,5.3,0.5,7,1.4
		C375.8,221,376.7,222.2,376.7,223.7z M354.9,230.7c4.7-0.2,8.4-1,11.3-2.3c2.8-1.3,4.2-2.8,4.2-4.7c0-0.9-0.4-1.7-1.1-2.3
		c-0.7-0.6-1.8-0.9-3.1-0.9c-1.7,0-3.3,0.5-4.8,1.4c-1.6,0.9-2.9,2.2-4.1,3.8C356.2,227.3,355.4,228.9,354.9,230.7z"/>
	<path class="st0" d="M404.2,209.5c7.7,0,13.5,1.2,17.5,3.5c4,2.3,6.1,5.6,6.1,10c0,3.9-1.2,7.3-3.6,10.3c-2.4,3-5.8,5.3-10.2,6.8
		c-4.4,1.6-9.5,2.4-15.4,2.4l-17.1-0.1h-6.1l0.3-1.3l6.3-0.7l7.4-29l-5.9-0.6l0.3-1.3H404.2z M420.3,223.1c0-7.6-6.1-11.4-18.3-11.4
		h-5.8L389,240c3.8,0.1,6.9,0.2,9.4,0.2c7,0,12.4-1.5,16.2-4.5C418.4,232.8,420.3,228.6,420.3,223.1z"/>
	<path class="st0" d="M442.1,242.8c-3.9,0-7.1-0.9-9.5-2.6c-2.4-1.7-3.6-4.1-3.6-7.1c0-2.6,0.8-5.1,2.5-7.3c1.6-2.2,3.9-4,6.8-5.3
		s6.2-1.9,9.8-1.9c3.9,0,7.1,0.9,9.5,2.6s3.6,4.1,3.6,7.1c0,2.6-0.8,5.1-2.5,7.3c-1.6,2.2-3.9,4-6.8,5.3
		C449,242.2,445.7,242.8,442.1,242.8z M435.3,234c0,2.2,0.6,3.9,1.9,5.1s3,1.8,5.2,1.8c2.2,0,4.2-0.6,6.2-1.8s3.5-2.8,4.6-4.9
		c1.1-2.1,1.7-4.3,1.7-6.7c0-2.3-0.6-4-1.9-5.1c-1.2-1.2-3-1.8-5.3-1.8c-2.2,0-4.2,0.6-6.1,1.8c-1.9,1.2-3.5,2.8-4.6,4.9
		C435.9,229.4,435.3,231.6,435.3,234z"/>
	<path class="st0" d="M470.7,238.1c0,0.7,0.3,1.3,0.8,1.7c0.5,0.4,1.2,0.6,2,0.6c1.7,0,3.5-0.2,5.4-0.7l0.7,1.2
		c-2.9,1.4-5.9,2.1-8.8,2.1c-1.9,0-3.3-0.4-4.4-1.2c-1.1-0.8-1.6-1.9-1.6-3.3c0-0.5,0.1-1,0.2-1.7s1.4-5.8,3.9-15.3h-4.4l0.3-1.1
		l4.7-1l4.9-5.2h2.3l-1.3,5.2h7.6l-0.6,2.1h-7.6l-3.4,13.5C471,236.3,470.7,237.4,470.7,238.1z"/>
	<path class="st0" d="M491.2,240.1c0,0.8-0.4,1.5-1.2,2.1c-0.8,0.6-1.8,0.9-3.1,0.9s-2.3-0.3-3.1-0.9c-0.8-0.6-1.2-1.3-1.2-2.1
		c0-0.8,0.4-1.5,1.2-2.1s1.8-0.9,3.1-0.9c1.2,0,2.2,0.3,3.1,0.9C490.8,238.6,491.2,239.3,491.2,240.1z"/>
</g>
<path class="st2" d="M521.7,116.3H87.8L140.1,600h323.6L521.7,116.3z M460.7,541l-248.1-0.1l-36-365.5l326.7,1.9L460.7,541z"/>
</svg>
