<?xml version="1.0" encoding="utf-8"?>
<!-- Generator: Adobe Illustrator 23.0.1, SVG Export Plug-In . SVG Version: 6.00 Build 0)  -->
<svg version="1.1" id="Layer_1" xmlns="http://www.w3.org/2000/svg" xmlns:xlink="http://www.w3.org/1999/xlink" x="0px" y="0px"
	 viewBox="0 0 600 600" style="enable-background:new 0 0 600 600;" xml:space="preserve">
<style type="text/css">
	.st0{fill:#FFFFFF;}
	.st1{fill:#330000;}
</style>
<circle class="st0" cx="300" cy="300" r="300"/>
<path class="st1" d="M322.8,34.1c22.7,11.9,61.7,47.8,46.1,82c-6,13.2-16.2,19.5-25.4,30.2c-18.3,21.5-19.1,69.6-22.3,70.6
	c-3.8,1.2-6.5-54.1,13.7-80.1c11.8-15.1,13.7-8.7,22.2-26.4C376.6,70,320.1,32.7,322.8,34.1z"/>
<path class="st1" d="M271.6,37.8c-3.7,0-51.8,23.9-28.4,67.3c9,16.7,15.7,28.5,22.1,45.3c14.6,38.5,21.5,98.7,24.5,101.4
	c3.8,3.4,3.2-69.5-14.2-109.9c-6.8-15.7-14.1-19.4-23.9-43.2C235.8,59.7,274.5,37.8,271.6,37.8z"/>
<g>
	<path class="st1" d="M512.9,303l-56.3-0.2c-1.7,8.4-3.9,16.6-6.6,24.5l22-2.5c11.1-1.9,24.8,2,24.2,9.9c-0.8,9.8-1.5,26.8-2.4,43.1
		c-0.9,17-9.3,32.6-13.6,48.5c0.1-0.5,1.1,0,1.6,0c24,0.1,40.3-33.7,40.5-56.3l4-60.4C526.3,303.1,519.7,303.1,512.9,303z"/>
	<path class="st0" d="M488.7,419.1c0.8-2.3,1.7-4.7,2.5-7.1c3.9-10.7,7.9-21.8,8.5-33.8c0.3-5.5,0.6-11.1,0.9-16.5
		c0.5-10.3,1-20.1,1.5-26.5c0.3-3.6-0.9-6.9-3.5-9.6c-4.2-4.5-12-7.2-21-7.2c-2.2,0-4.5,0.2-6.6,0.5l-12.7,1.4
		c1.1-3.8,2.1-7.6,3-11.5l51.7,0.2c2.2,0,5.8,0.1,7.2,0.6l-4,60.2l0,0.2C516.1,387.8,504.9,413.2,488.7,419.1z"/>
</g>
<g>
	<path class="st1" d="M302.7,306.9c-81.9,0-148.8-16.6-162-37.5c15,103.6,81.3,182.4,162.2,182.4c81.1,0,148.2-77.2,163-181.1
		C453.7,292,385.5,306.9,302.7,306.9z M302.8,445.4c-78.2,0-143.3-71.7-157.8-166.7c12.8,19.2,78.5,33.7,157.6,33.7
		c80,0,146.3-14.9,158-34.4C446.4,373.4,381.2,445.4,302.8,445.4z"/>
</g>
<g>
	<path class="st1" d="M381.3,425.1c-5.5,3.9-11.2,7.4-17,10.5c4.7,2.5,7.3,5.3,7.3,8.3c0,10.3-31.3,18.7-70,18.7s-70-8.4-70-18.7
		c0-3.5,3.6-6.8,10-9.6c-5.9-3.3-11.6-7-17.1-11.1c-20.2,5.2-32.8,12.6-32.8,20.7c0,15.9,48.3,28.8,107.9,28.8
		s107.9-12.9,107.9-28.8C407.4,436.7,397.6,430.1,381.3,425.1z"/>
</g>
<g>
	<path class="st1" d="M506.5,410.8c-5.8,6.8-12.7,11.2-20.4,11.1c-0.5,0-1.4-0.6-1.5,0c1.4-5.9,3.2-11.7,5-17.5
		c-19.2-6.5-43-12-70-16.1c-6.3,8.3-13.2,15.9-20.4,22.7c37.7,7.7,62,19.8,62,33.4c0,23.2-70.3,41.9-157,41.9s-157-18.8-157-41.9
		c0-13.7,24.5-25.8,62.3-33.5c-7.5-7.2-14.6-15.2-21.2-23.9c-77.6,10.8-130.7,32.4-130.7,57.4c0,35.7,108.3,64.6,241.9,64.6
		s241.9-28.9,241.9-64.6C541.5,432,528.7,420.6,506.5,410.8z"/>
</g>
<path class="st1" d="M298.9,89c5.9-7.6,6.6-4.4,11.1-13.3c3.4-6.7-0.2-17.2-3.3-24.5c-0.5-1.2-1.8-1.9-3.1-1.8
	c-14.3,1.4-27.4,15.2-30.9,34.1c-3.3,17.3,2.5,33.6,13.3,41.2c2,1.4,4.8-0.1,4.7-2.5C290.5,113.3,292.1,97.8,298.9,89z"/>
<path class="st1" d="M322.3,57.1c-2.3-1.7-5.4,0.7-4.4,3.4c2.5,6.4,2.9,13.7,0.1,20.1s-7.8,9.4-12.2,14.6
	c-6.8,7.9-8.6,23.4-9.8,30.4c-0.3,1.5,0.7,3,2.3,3.3l0,0c16.1,3,32.3-11.5,36.3-32.5C337.7,80,332.4,64.6,322.3,57.1z"/>
<g>
	<path class="st1" d="M302.2,257c-66,0-122.6,11.2-147.1,27.2c2.8,1.2,5.9,2.4,9.1,3.6c16.6-13,71.6-30.5,120.3-10.7
		c6,2.4,30.9,12.5,29.4,19.9c-0.9,4.6-11.7,7.7-27.3,9.6c4.9,0.1,9.9,0.2,15,0.2c63.3,0,118.6-8.1,149.8-21.1
		C428.2,268.9,370.2,257,302.2,257z"/>
</g>
<g>
	<path class="st1" d="M303.2,224.1c-89.8,0-162.6,19.8-162.6,44.2s72.8,44.2,162.6,44.2s162.6-19.8,162.6-44.2
		C465.9,243.9,393.1,224.1,303.2,224.1z M303.2,309.2c-85.2,0-154.2-18.8-154.2-41.9c0-23.2,69.1-41.9,154.2-41.9
		s154.2,18.8,154.2,41.9C457.5,290.4,388.4,309.2,303.2,309.2z"/>
</g>
</svg>
