<?xml version="1.0" encoding="utf-8"?>
<!-- Generator: Adobe Illustrator 23.0.1, SVG Export Plug-In . SVG Version: 6.00 Build 0)  -->
<svg version="1.1" id="Layer_1" xmlns="http://www.w3.org/2000/svg" xmlns:xlink="http://www.w3.org/1999/xlink" x="0px" y="0px"
	 viewBox="0 0 600 600" style="enable-background:new 0 0 600 600;" xml:space="preserve">
<style type="text/css">
	.st0{fill:#FAD39D;}
	.st1{fill:#330000;}
</style>
<g>
	<g>
		<path class="st0" d="M439.9,337.2H320.4c-8.7,0-15.8,4.8-15.8,10.7v241.2c0,5.9,7.1,10.7,15.8,10.7h76.7c8,0,14.8-4,15.7-9.4
			l42.7-241.2C456.7,342.8,449.4,337.2,439.9,337.2z"/>
		<path class="st0" d="M465.3,346.6l-42.7,241.2c-1.1,6.3,6.2,11.9,15.7,11.9h59.6c7.3,0,13.7-3.4,15.4-8.2l86.2-241.2
			c2.4-6.7-5.2-13.2-15.4-13.2H481C473,337.2,466.2,341.3,465.3,346.6z"/>
		<path class="st0" d="M160.3,337.2h119.4c8.7,0,15.8,4.8,15.8,10.7v241.2c0,5.9-7.1,10.7-15.8,10.7H203c-8,0-14.8-4-15.7-9.4
			l-42.7-241.2C143.4,342.8,150.8,337.2,160.3,337.2z"/>
		<path class="st0" d="M134.9,346.6l42.7,241.2c1.1,6.3-6.2,11.9-15.7,11.9h-59.6c-7.3,0-13.7-3.4-15.4-8.2L0.6,350.4
			c-2.4-6.7,5.2-13.2,15.4-13.2h103.1C127.2,337.2,133.9,341.3,134.9,346.6z"/>
	</g>
	<path class="st1" d="M579.7,316.8c19.6-39.4-30.6-94.9-89.2-120.6c-166.9-73.3-480.2,61-484.4,120.6H579.7z"/>
	<path class="st1" d="M72.9,237.8c1,0.7,2.1,1.3,3.2,2c99-52.8,321.8-101.5,464.9-50.3c13.3-10.9,21.2-22.2,21.9-33.4
		c2.6-42.9-99.2-90.4-108.5-94.6c-17.4-7.9-56.5-17.9-134.7-37.8C227.7,0.2,211-1.3,192,0.6C128.2,7.1,94,47.2,96.1,48.7
		c1.9,1.3,32.4-25,66.5-19.7c24.1,3.8,49.4,23.3,45.6,37.6c-7.7,29-128.5,9.6-170.9,50.6C5,148.4,25.5,207.3,72.9,237.8z"/>
</g>
</svg>
